<svg width="567" height="983" viewBox="0 0 567 983" fill="none" xmlns="http://www.w3.org/2000/svg">
<path d="M55.16 860.38C51.52 860.38 48.2533 861.127 45.36 862.62C42.56 864.02 40.18 866.12 38.22 868.92C36.26 871.72 34.7667 875.08 33.74 879C32.7133 882.92 32.2 887.353 32.2 892.3C32.2 899.02 33.04 904.713 34.72 909.38C36.4 914.047 38.9667 917.593 42.42 920.02C45.9667 922.447 50.4467 923.66 55.86 923.66C60.06 923.66 64.2133 923.147 68.32 922.12C72.4267 921 76.7667 919.6 81.34 917.92V938.08C76.9533 939.947 72.52 941.3 68.04 942.14C63.56 942.98 58.7067 943.4 53.48 943.4C42.9333 943.4 34.2533 941.3 27.44 937.1C20.72 932.807 15.7267 926.833 12.46 919.18C9.28667 911.433 7.7 902.427 7.7 892.16C7.7 884.6 8.72667 877.693 10.78 871.44C12.8333 865.093 15.8667 859.633 19.88 855.06C23.9867 850.487 28.98 846.94 34.86 844.42C40.74 841.9 47.5533 840.64 55.3 840.64C60.1533 840.64 65.1467 841.247 70.28 842.46C75.5067 843.673 80.5 845.4 85.26 847.64L77.84 866.68C74.1067 864.907 70.3733 863.413 66.64 862.2C62.9067 860.987 59.08 860.38 55.16 860.38ZM202.967 891.88C202.967 899.627 202.033 906.673 200.167 913.02C198.3 919.273 195.407 924.687 191.487 929.26C187.567 933.833 182.573 937.333 176.507 939.76C170.44 942.187 163.253 943.4 154.947 943.4C146.733 943.4 139.593 942.187 133.527 939.76C127.46 937.24 122.467 933.74 118.547 929.26C114.627 924.687 111.687 919.227 109.727 912.88C107.86 906.533 106.927 899.487 106.927 891.74C106.927 881.38 108.607 872.373 111.967 864.72C115.42 857.067 120.693 851.14 127.787 846.94C134.973 842.647 144.073 840.5 155.087 840.5C166.193 840.5 175.247 842.647 182.247 846.94C189.34 851.14 194.567 857.113 197.927 864.86C201.287 872.513 202.967 881.52 202.967 891.88ZM131.987 891.88C131.987 898.413 132.78 904.06 134.367 908.82C135.953 913.487 138.427 917.08 141.787 919.6C145.24 922.12 149.627 923.38 154.947 923.38C160.453 923.38 164.887 922.12 168.247 919.6C171.607 917.08 174.033 913.487 175.527 908.82C177.113 904.06 177.907 898.413 177.907 891.88C177.907 881.987 176.133 874.24 172.587 868.64C169.133 863.04 163.3 860.24 155.087 860.24C149.673 860.24 145.24 861.547 141.787 864.16C138.427 866.68 135.953 870.32 134.367 875.08C132.78 879.747 131.987 885.347 131.987 891.88ZM257.932 942H234.412V842.04H292.512V861.36H257.932V884.04H289.992V903.36H257.932V942ZM346.085 942H322.565V842.04H380.665V861.36H346.085V884.04H378.145V903.36H346.085V942ZM469.097 942H410.717V842.04H469.097V861.36H434.517V880.54H466.577V899.86H434.517V922.4H469.097V942ZM558.753 942H500.373V842.04H558.753V861.36H524.173V880.54H556.233V899.86H524.173V922.4H558.753V942Z" fill="white" fill-opacity="0.04"/>
<path d="M55.16 708.38C51.52 708.38 48.2533 709.127 45.36 710.62C42.56 712.02 40.18 714.12 38.22 716.92C36.26 719.72 34.7667 723.08 33.74 727C32.7133 730.92 32.2 735.353 32.2 740.3C32.2 747.02 33.04 752.713 34.72 757.38C36.4 762.047 38.9667 765.593 42.42 768.02C45.9667 770.447 50.4467 771.66 55.86 771.66C60.06 771.66 64.2133 771.147 68.32 770.12C72.4267 769 76.7667 767.6 81.34 765.92V786.08C76.9533 787.947 72.52 789.3 68.04 790.14C63.56 790.98 58.7067 791.4 53.48 791.4C42.9333 791.4 34.2533 789.3 27.44 785.1C20.72 780.807 15.7267 774.833 12.46 767.18C9.28667 759.433 7.7 750.427 7.7 740.16C7.7 732.6 8.72667 725.693 10.78 719.44C12.8333 713.093 15.8667 707.633 19.88 703.06C23.9867 698.487 28.98 694.94 34.86 692.42C40.74 689.9 47.5533 688.64 55.3 688.64C60.1533 688.64 65.1467 689.247 70.28 690.46C75.5067 691.673 80.5 693.4 85.26 695.64L77.84 714.68C74.1067 712.907 70.3733 711.413 66.64 710.2C62.9067 708.987 59.08 708.38 55.16 708.38ZM202.967 739.88C202.967 747.627 202.033 754.673 200.167 761.02C198.3 767.273 195.407 772.687 191.487 777.26C187.567 781.833 182.573 785.333 176.507 787.76C170.44 790.187 163.253 791.4 154.947 791.4C146.733 791.4 139.593 790.187 133.527 787.76C127.46 785.24 122.467 781.74 118.547 777.26C114.627 772.687 111.687 767.227 109.727 760.88C107.86 754.533 106.927 747.487 106.927 739.74C106.927 729.38 108.607 720.373 111.967 712.72C115.42 705.067 120.693 699.14 127.787 694.94C134.973 690.647 144.073 688.5 155.087 688.5C166.193 688.5 175.247 690.647 182.247 694.94C189.34 699.14 194.567 705.113 197.927 712.86C201.287 720.513 202.967 729.52 202.967 739.88ZM131.987 739.88C131.987 746.413 132.78 752.06 134.367 756.82C135.953 761.487 138.427 765.08 141.787 767.6C145.24 770.12 149.627 771.38 154.947 771.38C160.453 771.38 164.887 770.12 168.247 767.6C171.607 765.08 174.033 761.487 175.527 756.82C177.113 752.06 177.907 746.413 177.907 739.88C177.907 729.987 176.133 722.24 172.587 716.64C169.133 711.04 163.3 708.24 155.087 708.24C149.673 708.24 145.24 709.547 141.787 712.16C138.427 714.68 135.953 718.32 134.367 723.08C132.78 727.747 131.987 733.347 131.987 739.88ZM257.932 790H234.412V690.04H292.512V709.36H257.932V732.04H289.992V751.36H257.932V790ZM346.085 790H322.565V690.04H380.665V709.36H346.085V732.04H378.145V751.36H346.085V790ZM469.097 790H410.717V690.04H469.097V709.36H434.517V728.54H466.577V747.86H434.517V770.4H469.097V790ZM558.753 790H500.373V690.04H558.753V709.36H524.173V728.54H556.233V747.86H524.173V770.4H558.753V790Z" fill="white" fill-opacity="0.04"/>
<path d="M55.16 556.38C51.52 556.38 48.2533 557.127 45.36 558.62C42.56 560.02 40.18 562.12 38.22 564.92C36.26 567.72 34.7667 571.08 33.74 575C32.7133 578.92 32.2 583.353 32.2 588.3C32.2 595.02 33.04 600.713 34.72 605.38C36.4 610.047 38.9667 613.593 42.42 616.02C45.9667 618.447 50.4467 619.66 55.86 619.66C60.06 619.66 64.2133 619.147 68.32 618.12C72.4267 617 76.7667 615.6 81.34 613.92V634.08C76.9533 635.947 72.52 637.3 68.04 638.14C63.56 638.98 58.7067 639.4 53.48 639.4C42.9333 639.4 34.2533 637.3 27.44 633.1C20.72 628.807 15.7267 622.833 12.46 615.18C9.28667 607.433 7.7 598.427 7.7 588.16C7.7 580.6 8.72667 573.693 10.78 567.44C12.8333 561.093 15.8667 555.633 19.88 551.06C23.9867 546.487 28.98 542.94 34.86 540.42C40.74 537.9 47.5533 536.64 55.3 536.64C60.1533 536.64 65.1467 537.247 70.28 538.46C75.5067 539.673 80.5 541.4 85.26 543.64L77.84 562.68C74.1067 560.907 70.3733 559.413 66.64 558.2C62.9067 556.987 59.08 556.38 55.16 556.38ZM202.967 587.88C202.967 595.627 202.033 602.673 200.167 609.02C198.3 615.273 195.407 620.687 191.487 625.26C187.567 629.833 182.573 633.333 176.507 635.76C170.44 638.187 163.253 639.4 154.947 639.4C146.733 639.4 139.593 638.187 133.527 635.76C127.46 633.24 122.467 629.74 118.547 625.26C114.627 620.687 111.687 615.227 109.727 608.88C107.86 602.533 106.927 595.487 106.927 587.74C106.927 577.38 108.607 568.373 111.967 560.72C115.42 553.067 120.693 547.14 127.787 542.94C134.973 538.647 144.073 536.5 155.087 536.5C166.193 536.5 175.247 538.647 182.247 542.94C189.34 547.14 194.567 553.113 197.927 560.86C201.287 568.513 202.967 577.52 202.967 587.88ZM131.987 587.88C131.987 594.413 132.78 600.06 134.367 604.82C135.953 609.487 138.427 613.08 141.787 615.6C145.24 618.12 149.627 619.38 154.947 619.38C160.453 619.38 164.887 618.12 168.247 615.6C171.607 613.08 174.033 609.487 175.527 604.82C177.113 600.06 177.907 594.413 177.907 587.88C177.907 577.987 176.133 570.24 172.587 564.64C169.133 559.04 163.3 556.24 155.087 556.24C149.673 556.24 145.24 557.547 141.787 560.16C138.427 562.68 135.953 566.32 134.367 571.08C132.78 575.747 131.987 581.347 131.987 587.88ZM257.932 638H234.412V538.04H292.512V557.36H257.932V580.04H289.992V599.36H257.932V638ZM346.085 638H322.565V538.04H380.665V557.36H346.085V580.04H378.145V599.36H346.085V638ZM469.097 638H410.717V538.04H469.097V557.36H434.517V576.54H466.577V595.86H434.517V618.4H469.097V638ZM558.753 638H500.373V538.04H558.753V557.36H524.173V576.54H556.233V595.86H524.173V618.4H558.753V638Z" fill="white" fill-opacity="0.04"/>
<path d="M55.16 404.38C51.52 404.38 48.2533 405.127 45.36 406.62C42.56 408.02 40.18 410.12 38.22 412.92C36.26 415.72 34.7667 419.08 33.74 423C32.7133 426.92 32.2 431.353 32.2 436.3C32.2 443.02 33.04 448.713 34.72 453.38C36.4 458.047 38.9667 461.593 42.42 464.02C45.9667 466.447 50.4467 467.66 55.86 467.66C60.06 467.66 64.2133 467.147 68.32 466.12C72.4267 465 76.7667 463.6 81.34 461.92V482.08C76.9533 483.947 72.52 485.3 68.04 486.14C63.56 486.98 58.7067 487.4 53.48 487.4C42.9333 487.4 34.2533 485.3 27.44 481.1C20.72 476.807 15.7267 470.833 12.46 463.18C9.28667 455.433 7.7 446.427 7.7 436.16C7.7 428.6 8.72667 421.693 10.78 415.44C12.8333 409.093 15.8667 403.633 19.88 399.06C23.9867 394.487 28.98 390.94 34.86 388.42C40.74 385.9 47.5533 384.64 55.3 384.64C60.1533 384.64 65.1467 385.247 70.28 386.46C75.5067 387.673 80.5 389.4 85.26 391.64L77.84 410.68C74.1067 408.907 70.3733 407.413 66.64 406.2C62.9067 404.987 59.08 404.38 55.16 404.38ZM202.967 435.88C202.967 443.627 202.033 450.673 200.167 457.02C198.3 463.273 195.407 468.687 191.487 473.26C187.567 477.833 182.573 481.333 176.507 483.76C170.44 486.187 163.253 487.4 154.947 487.4C146.733 487.4 139.593 486.187 133.527 483.76C127.46 481.24 122.467 477.74 118.547 473.26C114.627 468.687 111.687 463.227 109.727 456.88C107.86 450.533 106.927 443.487 106.927 435.74C106.927 425.38 108.607 416.373 111.967 408.72C115.42 401.067 120.693 395.14 127.787 390.94C134.973 386.647 144.073 384.5 155.087 384.5C166.193 384.5 175.247 386.647 182.247 390.94C189.34 395.14 194.567 401.113 197.927 408.86C201.287 416.513 202.967 425.52 202.967 435.88ZM131.987 435.88C131.987 442.413 132.78 448.06 134.367 452.82C135.953 457.487 138.427 461.08 141.787 463.6C145.24 466.12 149.627 467.38 154.947 467.38C160.453 467.38 164.887 466.12 168.247 463.6C171.607 461.08 174.033 457.487 175.527 452.82C177.113 448.06 177.907 442.413 177.907 435.88C177.907 425.987 176.133 418.24 172.587 412.64C169.133 407.04 163.3 404.24 155.087 404.24C149.673 404.24 145.24 405.547 141.787 408.16C138.427 410.68 135.953 414.32 134.367 419.08C132.78 423.747 131.987 429.347 131.987 435.88ZM257.932 486H234.412V386.04H292.512V405.36H257.932V428.04H289.992V447.36H257.932V486ZM346.085 486H322.565V386.04H380.665V405.36H346.085V428.04H378.145V447.36H346.085V486ZM469.097 486H410.717V386.04H469.097V405.36H434.517V424.54H466.577V443.86H434.517V466.4H469.097V486ZM558.753 486H500.373V386.04H558.753V405.36H524.173V424.54H556.233V443.86H524.173V466.4H558.753V486Z" fill="white" fill-opacity="0.04"/>
<path d="M55.16 252.38C51.52 252.38 48.2533 253.127 45.36 254.62C42.56 256.02 40.18 258.12 38.22 260.92C36.26 263.72 34.7667 267.08 33.74 271C32.7133 274.92 32.2 279.353 32.2 284.3C32.2 291.02 33.04 296.713 34.72 301.38C36.4 306.047 38.9667 309.593 42.42 312.02C45.9667 314.447 50.4467 315.66 55.86 315.66C60.06 315.66 64.2133 315.147 68.32 314.12C72.4267 313 76.7667 311.6 81.34 309.92V330.08C76.9533 331.947 72.52 333.3 68.04 334.14C63.56 334.98 58.7067 335.4 53.48 335.4C42.9333 335.4 34.2533 333.3 27.44 329.1C20.72 324.807 15.7267 318.833 12.46 311.18C9.28667 303.433 7.7 294.427 7.7 284.16C7.7 276.6 8.72667 269.693 10.78 263.44C12.8333 257.093 15.8667 251.633 19.88 247.06C23.9867 242.487 28.98 238.94 34.86 236.42C40.74 233.9 47.5533 232.64 55.3 232.64C60.1533 232.64 65.1467 233.247 70.28 234.46C75.5067 235.673 80.5 237.4 85.26 239.64L77.84 258.68C74.1067 256.907 70.3733 255.413 66.64 254.2C62.9067 252.987 59.08 252.38 55.16 252.38ZM202.967 283.88C202.967 291.627 202.033 298.673 200.167 305.02C198.3 311.273 195.407 316.687 191.487 321.26C187.567 325.833 182.573 329.333 176.507 331.76C170.44 334.187 163.253 335.4 154.947 335.4C146.733 335.4 139.593 334.187 133.527 331.76C127.46 329.24 122.467 325.74 118.547 321.26C114.627 316.687 111.687 311.227 109.727 304.88C107.86 298.533 106.927 291.487 106.927 283.74C106.927 273.38 108.607 264.373 111.967 256.72C115.42 249.067 120.693 243.14 127.787 238.94C134.973 234.647 144.073 232.5 155.087 232.5C166.193 232.5 175.247 234.647 182.247 238.94C189.34 243.14 194.567 249.113 197.927 256.86C201.287 264.513 202.967 273.52 202.967 283.88ZM131.987 283.88C131.987 290.413 132.78 296.06 134.367 300.82C135.953 305.487 138.427 309.08 141.787 311.6C145.24 314.12 149.627 315.38 154.947 315.38C160.453 315.38 164.887 314.12 168.247 311.6C171.607 309.08 174.033 305.487 175.527 300.82C177.113 296.06 177.907 290.413 177.907 283.88C177.907 273.987 176.133 266.24 172.587 260.64C169.133 255.04 163.3 252.24 155.087 252.24C149.673 252.24 145.24 253.547 141.787 256.16C138.427 258.68 135.953 262.32 134.367 267.08C132.78 271.747 131.987 277.347 131.987 283.88ZM257.932 334H234.412V234.04H292.512V253.36H257.932V276.04H289.992V295.36H257.932V334ZM346.085 334H322.565V234.04H380.665V253.36H346.085V276.04H378.145V295.36H346.085V334ZM469.097 334H410.717V234.04H469.097V253.36H434.517V272.54H466.577V291.86H434.517V314.4H469.097V334ZM558.753 334H500.373V234.04H558.753V253.36H524.173V272.54H556.233V291.86H524.173V314.4H558.753V334Z" fill="white" fill-opacity="0.04"/>
<path d="M55.16 100.38C51.52 100.38 48.2533 101.127 45.36 102.62C42.56 104.02 40.18 106.12 38.22 108.92C36.26 111.72 34.7667 115.08 33.74 119C32.7133 122.92 32.2 127.353 32.2 132.3C32.2 139.02 33.04 144.713 34.72 149.38C36.4 154.047 38.9667 157.593 42.42 160.02C45.9667 162.447 50.4467 163.66 55.86 163.66C60.06 163.66 64.2133 163.147 68.32 162.12C72.4267 161 76.7667 159.6 81.34 157.92V178.08C76.9533 179.947 72.52 181.3 68.04 182.14C63.56 182.98 58.7067 183.4 53.48 183.4C42.9333 183.4 34.2533 181.3 27.44 177.1C20.72 172.807 15.7267 166.833 12.46 159.18C9.28667 151.433 7.7 142.427 7.7 132.16C7.7 124.6 8.72667 117.693 10.78 111.44C12.8333 105.093 15.8667 99.6333 19.88 95.06C23.9867 90.4867 28.98 86.94 34.86 84.42C40.74 81.9 47.5533 80.64 55.3 80.64C60.1533 80.64 65.1467 81.2467 70.28 82.46C75.5067 83.6733 80.5 85.4 85.26 87.64L77.84 106.68C74.1067 104.907 70.3733 103.413 66.64 102.2C62.9067 100.987 59.08 100.38 55.16 100.38ZM202.967 131.88C202.967 139.627 202.033 146.673 200.167 153.02C198.3 159.273 195.407 164.687 191.487 169.26C187.567 173.833 182.573 177.333 176.507 179.76C170.44 182.187 163.253 183.4 154.947 183.4C146.733 183.4 139.593 182.187 133.527 179.76C127.46 177.24 122.467 173.74 118.547 169.26C114.627 164.687 111.687 159.227 109.727 152.88C107.86 146.533 106.927 139.487 106.927 131.74C106.927 121.38 108.607 112.373 111.967 104.72C115.42 97.0667 120.693 91.14 127.787 86.94C134.973 82.6467 144.073 80.5 155.087 80.5C166.193 80.5 175.247 82.6467 182.247 86.94C189.34 91.14 194.567 97.1133 197.927 104.86C201.287 112.513 202.967 121.52 202.967 131.88ZM131.987 131.88C131.987 138.413 132.78 144.06 134.367 148.82C135.953 153.487 138.427 157.08 141.787 159.6C145.24 162.12 149.627 163.38 154.947 163.38C160.453 163.38 164.887 162.12 168.247 159.6C171.607 157.08 174.033 153.487 175.527 148.82C177.113 144.06 177.907 138.413 177.907 131.88C177.907 121.987 176.133 114.24 172.587 108.64C169.133 103.04 163.3 100.24 155.087 100.24C149.673 100.24 145.24 101.547 141.787 104.16C138.427 106.68 135.953 110.32 134.367 115.08C132.78 119.747 131.987 125.347 131.987 131.88ZM257.932 182H234.412V82.04H292.512V101.36H257.932V124.04H289.992V143.36H257.932V182ZM346.085 182H322.565V82.04H380.665V101.36H346.085V124.04H378.145V143.36H346.085V182ZM469.097 182H410.717V82.04H469.097V101.36H434.517V120.54H466.577V139.86H434.517V162.4H469.097V182ZM558.753 182H500.373V82.04H558.753V101.36H524.173V120.54H556.233V139.86H524.173V162.4H558.753V182Z" fill="white" fill-opacity="0.04"/>
<path d="M55.16 -51.62C51.52 -51.62 48.2533 -50.8733 45.36 -49.38C42.56 -47.98 40.18 -45.88 38.22 -43.08C36.26 -40.28 34.7667 -36.92 33.74 -33C32.7133 -29.08 32.2 -24.6467 32.2 -19.7C32.2 -12.98 33.04 -7.28667 34.72 -2.62C36.4 2.04666 38.9667 5.59333 42.42 8.02C45.9667 10.4467 50.4467 11.66 55.86 11.66C60.06 11.66 64.2133 11.1467 68.32 10.12C72.4267 9 76.7667 7.6 81.34 5.92V26.08C76.9533 27.9467 72.52 29.3 68.04 30.14C63.56 30.98 58.7067 31.4 53.48 31.4C42.9333 31.4 34.2533 29.3 27.44 25.1C20.72 20.8067 15.7267 14.8333 12.46 7.18C9.28667 -0.566667 7.7 -9.57333 7.7 -19.84C7.7 -27.4 8.72667 -34.3067 10.78 -40.56C12.8333 -46.9067 15.8667 -52.3667 19.88 -56.94C23.9867 -61.5133 28.98 -65.06 34.86 -67.58C40.74 -70.1 47.5533 -71.36 55.3 -71.36C60.1533 -71.36 65.1467 -70.7533 70.28 -69.54C75.5067 -68.3267 80.5 -66.6 85.26 -64.36L77.84 -45.32C74.1067 -47.0933 70.3733 -48.5867 66.64 -49.8C62.9067 -51.0133 59.08 -51.62 55.16 -51.62ZM202.967 -20.12C202.967 -12.3733 202.033 -5.32667 200.167 1.02C198.3 7.27333 195.407 12.6867 191.487 17.26C187.567 21.8333 182.573 25.3333 176.507 27.76C170.44 30.1867 163.253 31.4 154.947 31.4C146.733 31.4 139.593 30.1867 133.527 27.76C127.46 25.24 122.467 21.74 118.547 17.26C114.627 12.6867 111.687 7.22667 109.727 0.879999C107.86 -5.46667 106.927 -12.5133 106.927 -20.26C106.927 -30.62 108.607 -39.6267 111.967 -47.28C115.42 -54.9333 120.693 -60.86 127.787 -65.06C134.973 -69.3533 144.073 -71.5 155.087 -71.5C166.193 -71.5 175.247 -69.3533 182.247 -65.06C189.34 -60.86 194.567 -54.8867 197.927 -47.14C201.287 -39.4867 202.967 -30.48 202.967 -20.12ZM131.987 -20.12C131.987 -13.5867 132.78 -7.94 134.367 -3.18C135.953 1.48667 138.427 5.08 141.787 7.6C145.24 10.12 149.627 11.38 154.947 11.38C160.453 11.38 164.887 10.12 168.247 7.6C171.607 5.08 174.033 1.48667 175.527 -3.18C177.113 -7.94 177.907 -13.5867 177.907 -20.12C177.907 -30.0133 176.133 -37.76 172.587 -43.36C169.133 -48.96 163.3 -51.76 155.087 -51.76C149.673 -51.76 145.24 -50.4533 141.787 -47.84C138.427 -45.32 135.953 -41.68 134.367 -36.92C132.78 -32.2533 131.987 -26.6533 131.987 -20.12ZM257.932 30H234.412V-69.96H292.512V-50.64H257.932V-27.96H289.992V-8.64H257.932V30ZM346.085 30H322.565V-69.96H380.665V-50.64H346.085V-27.96H378.145V-8.64H346.085V30ZM469.097 30H410.717V-69.96H469.097V-50.64H434.517V-31.46H466.577V-12.14H434.517V10.4H469.097V30ZM558.753 30H500.373V-69.96H558.753V-50.64H524.173V-31.46H556.233V-12.14H524.173V10.4H558.753V30Z" fill="white" fill-opacity="0.04"/>
</svg>
